<svg width="1200" height="630" viewBox="0 0 1200 630" xmlns="http://www.w3.org/2000/svg"><defs><pattern id="satori_pattern_id_1" x="0" y="0" width="0.08333333333333333" height="0.15873015873015872" patternUnits="objectBoundingBox"><radialGradient id="satori_radial_id_1"><stop offset="0" stop-color="#e0e0e0"></stop><stop offset="0.02" stop-color="#e0e0e0"></stop><stop offset="0" stop-color="transparent"></stop><stop offset="1" stop-color="transparent"></stop></radialGradient><mask id="satori_mask_id_1"><rect x="0" y="0" width="100" height="100" fill="#fff"></rect></mask><rect x="0" y="0" width="100" height="100" fill="transparent"></rect><circle cx="75" cy="75" width="100" height="100" r="106.06601717798213" fill="url(#satori_radial_id_1)" mask="url(#satori_mask_id_1)"></circle></pattern><pattern id="satori_pattern_id_0" x="0" y="0" width="0.08333333333333333" height="0.15873015873015872" patternUnits="objectBoundingBox"><radialGradient id="satori_radial_id_0"><stop offset="0" stop-color="#e0e0e0"></stop><stop offset="0.02" stop-color="#e0e0e0"></stop><stop offset="0" stop-color="transparent"></stop><stop offset="1" stop-color="transparent"></stop></radialGradient><mask id="satori_mask_id_0"><rect x="0" y="0" width="100" height="100" fill="#fff"></rect></mask><rect x="0" y="0" width="100" height="100" fill="transparent"></rect><circle cx="25" cy="25" width="100" height="100" r="106.06601717798213" fill="url(#satori_radial_id_0)" mask="url(#satori_mask_id_0)"></circle></pattern></defs><mask id="satori_om-id"><rect x="0" y="0" width="1200" height="630" fill="#fff"></rect></mask><rect x="0" y="0" width="1200" height="630" fill="#f4f4f4"></rect><rect x="0" y="0" width="1200" height="630" fill="url(#satori_pattern_id_1)"></rect><rect x="0" y="0" width="1200" height="630" fill="url(#satori_pattern_id_0)"></rect><clipPath id="satori_cp-id-0"><rect x="550" y="212" width="100" height="100"></rect></clipPath><mask id="satori_om-id-0"><rect x="550" y="212" width="100" height="100" fill="#fff"></rect></mask><image x="550" y="212" width="100" height="100" href="data:image/svg+xml;utf8,%3Csvg  xmlns=%22http://www.w3.org/2000/svg%22 width=%22100%22 height=%22100%22 viewBox=%220 0 300 300%22%3E%3Cline x1=%22100%22 y1=%220%22 x2=%22100%22 y2=%22300%22 stroke=%22black%22 stroke-width=%2210%22%3E%3C/line%3E%3Cline x1=%22200%22 y1=%220%22 x2=%22200%22 y2=%22300%22 stroke=%22black%22 stroke-width=%2210%22%3E%3C/line%3E%3Cline x1=%220%22 y1=%22100%22 x2=%22300%22 y2=%22100%22 stroke=%22black%22 stroke-width=%2210%22%3E%3C/line%3E%3Cline x1=%220%22 y1=%22200%22 x2=%22300%22 y2=%22200%22 stroke=%22black%22 stroke-width=%2210%22%3E%3C/line%3E%3C/svg%3E" preserveAspectRatio="none" clip-path="url(#satori_cp-id-0)" mask="url(#satori_om-id-0)"></image><mask id="satori_om-id-0-0"><rect x="550" y="212" width="0" height="100" fill="#fff"></rect></mask><mask id="satori_om-id-0-1"><rect x="550" y="212" width="0" height="100" fill="#fff"></rect></mask><mask id="satori_om-id-0-2"><rect x="550" y="212" width="0" height="100" fill="#fff"></rect></mask><mask id="satori_om-id-0-3"><rect x="550" y="212" width="0" height="100" fill="#fff"></rect></mask><mask id="satori_om-id-1"><rect x="452" y="322" width="297" height="96" fill="#fff"></rect></mask><path fill="#333" d="M464.4 339.4L453.7 339.4L453.7 333.3L482.4 333.3L482.4 339.4L471.7 339.4L471.7 368.3L464.4 368.3L464.4 339.4ZM494.2 368.3L487.0 368.3L487.0 342.1L494.2 342.1L494.2 368.3ZM490.6 338.7L490.6 338.7Q489.0 338.7 487.9 337.6Q486.7 336.5 486.7 335.0L486.7 335.0Q486.7 333.5 487.9 332.4Q489.0 331.4 490.6 331.4L490.6 331.4Q492.2 331.4 493.4 332.4Q494.5 333.5 494.5 335.0L494.5 335.0Q494.5 336.5 493.4 337.6Q492.2 338.7 490.6 338.7ZM511.9 368.8L511.9 368.8Q507.8 368.8 505.0 367.1Q502.1 365.3 500.5 362.3Q499.0 359.2 499.0 355.3L499.0 355.3Q499.0 351.2 500.5 348.2Q502.1 345.2 505.0 343.4Q507.9 341.7 511.8 341.7L511.8 341.7Q515.3 341.7 517.8 343.0Q520.4 344.2 521.9 346.5Q523.4 348.7 523.6 351.8L523.6 351.8L516.7 351.8Q516.4 349.8 515.2 348.6Q513.9 347.4 511.9 347.4L511.9 347.4Q510.3 347.4 509.0 348.3Q507.8 349.2 507.1 351.0Q506.4 352.7 506.4 355.2L506.4 355.2Q506.4 357.7 507.0 359.4Q507.7 361.2 509 362.1Q510.3 363.0 511.9 363.0L511.9 363.0Q513.2 363.0 514.2 362.5Q515.2 362.0 515.8 361.0Q516.5 360.0 516.7 358.7L516.7 358.7L523.6 358.7Q523.4 361.7 521.9 363.9Q520.5 366.2 517.9 367.5Q515.4 368.8 511.9 368.8ZM528.6 351.0L544.5 351.0L544.5 356.8L528.6 356.8L528.6 351.0ZM558.8 339.4L548.1 339.4L548.1 333.3L576.8 333.3L576.8 339.4L566.1 339.4L566.1 368.3L558.8 368.3L558.8 339.4ZM585.3 368.7L585.3 368.7Q582.8 368.7 580.8 367.9Q578.9 367.0 577.8 365.3Q576.6 363.5 576.6 360.9L576.6 360.9Q576.6 358.8 577.4 357.3Q578.2 355.8 579.6 354.9Q581.0 354.0 582.7 353.5Q584.5 353.1 586.5 352.9L586.5 352.9Q588.7 352.6 590.1 352.4Q591.5 352.2 592.2 351.8Q592.8 351.4 592.8 350.5L592.8 350.5L592.8 350.4Q592.8 348.8 591.8 347.9Q590.8 347.0 588.9 347.0L588.9 347.0Q586.9 347.0 585.8 347.9Q584.6 348.8 584.3 350.1L584.3 350.1L577.5 349.5Q578.1 347.1 579.6 345.4Q581.1 343.6 583.4 342.7Q585.8 341.7 588.9 341.7L588.9 341.7Q591.1 341.7 593.1 342.2Q595.1 342.8 596.7 343.8Q598.3 344.9 599.2 346.6Q600.1 348.3 600.1 350.6L600.1 350.6L600.1 368.3L593.2 368.3L593.2 364.6L593.0 364.6Q592.3 365.9 591.3 366.8Q590.2 367.7 588.7 368.2Q587.3 368.7 585.3 368.7ZM587.4 363.7L587.4 363.7Q589.0 363.7 590.2 363.1Q591.4 362.5 592.1 361.4Q592.8 360.3 592.8 358.9L592.8 358.9L592.8 356.1Q592.5 356.3 591.9 356.5Q591.3 356.7 590.6 356.8Q589.9 357.0 589.1 357.1Q588.4 357.2 587.8 357.3L587.8 357.3Q586.5 357.5 585.6 357.9Q584.6 358.3 584.1 359.0Q583.6 359.7 583.6 360.7L583.6 360.7Q583.6 362.2 584.6 363.0Q585.7 363.7 587.4 363.7ZM617.5 368.8L617.5 368.8Q613.5 368.8 610.6 367.1Q607.7 365.3 606.2 362.3Q604.6 359.2 604.6 355.3L604.6 355.3Q604.6 351.2 606.2 348.2Q607.8 345.2 610.6 343.4Q613.5 341.7 617.5 341.7L617.5 341.7Q620.9 341.7 623.5 343.0Q626.1 344.2 627.6 346.5Q629.1 348.7 629.2 351.8L629.2 351.8L622.4 351.8Q622.1 349.8 620.8 348.6Q619.6 347.4 617.6 347.4L617.6 347.4Q615.9 347.4 614.7 348.3Q613.4 349.2 612.7 351.0Q612.0 352.7 612.0 355.2L612.0 355.2Q612.0 357.7 612.7 359.4Q613.4 361.2 614.7 362.1Q615.9 363.0 617.6 363.0L617.6 363.0Q618.9 363.0 619.9 362.5Q620.9 362.0 621.5 361.0Q622.2 360.0 622.4 358.7L622.4 358.7L629.2 358.7Q629.1 361.7 627.6 363.9Q626.1 366.2 623.6 367.5Q621.0 368.8 617.5 368.8ZM634.3 351.0L650.2 351.0L650.2 356.8L634.3 356.8L634.3 351.0ZM664.5 339.4L653.8 339.4L653.8 333.3L682.5 333.3L682.5 339.4L671.8 339.4L671.8 368.3L664.5 368.3L664.5 339.4ZM695.1 368.8L695.1 368.8Q691.1 368.8 688.2 367.1Q685.3 365.4 683.8 362.3Q682.2 359.3 682.2 355.3L682.2 355.3Q682.2 351.2 683.8 348.2Q685.3 345.1 688.2 343.4Q691.1 341.7 695.1 341.7L695.1 341.7Q699.0 341.7 701.9 343.4Q704.8 345.1 706.4 348.2Q708.0 351.2 708.0 355.3L708.0 355.3Q708.0 359.3 706.4 362.3Q704.8 365.4 701.9 367.1Q699.0 368.8 695.1 368.8ZM695.1 363.1L695.1 363.1Q696.9 363.1 698.1 362.1Q699.3 361.1 700.0 359.3Q700.6 357.5 700.6 355.2L700.6 355.2Q700.6 352.9 700.0 351.1Q699.3 349.4 698.1 348.3Q696.9 347.3 695.1 347.3L695.1 347.3Q693.3 347.3 692.0 348.3Q690.8 349.4 690.2 351.1Q689.6 352.9 689.6 355.2L689.6 355.2Q689.6 357.5 690.2 359.3Q690.8 361.1 692.0 362.1Q693.3 363.1 695.1 363.1ZM724.6 368.8L724.6 368.8Q720.6 368.8 717.7 367.1Q714.8 365.5 713.2 362.5Q711.6 359.4 711.6 355.3L711.6 355.3Q711.6 351.2 713.2 348.2Q714.8 345.1 717.6 343.4Q720.5 341.7 724.3 341.7L724.3 341.7Q726.9 341.7 729.2 342.6Q731.4 343.4 733.1 345.0Q734.8 346.7 735.7 349.2Q736.6 351.7 736.6 355.0L736.6 355.0L736.6 357.0L714.5 357.0L714.5 352.5L729.8 352.5Q729.8 351.0 729.1 349.7Q728.4 348.5 727.2 347.8Q726.0 347.2 724.5 347.2L724.5 347.2Q722.8 347.2 721.5 347.9Q720.3 348.7 719.5 349.9Q718.8 351.2 718.8 352.8L718.8 352.8L718.8 357.0Q718.8 359.0 719.5 360.4Q720.3 361.8 721.6 362.6Q722.9 363.3 724.7 363.3L724.7 363.3Q726.0 363.3 727.0 363.0Q728.0 362.7 728.7 362.0Q729.4 361.3 729.8 360.3L729.8 360.3L736.5 360.8Q736.0 363.2 734.4 365.0Q732.8 366.8 730.3 367.8Q727.9 368.8 724.6 368.8Z "></path><mask id="satori_om-id-1-1"><rect x="601" y="380" width="0" height="0" fill="#fff"></rect></mask><mask id="satori_om-id-1-2"><rect x="485" y="380" width="232" height="38" fill="#fff"></rect></mask><path fill="#333" d="M498.8 393.4L501.7 393.4L495.3 410.8L492.5 410.8L486.1 393.4L489 393.4L493.8 407.3L494 407.3L498.8 393.4ZM517.6 397.3L517.6 397.3L515.2 398.0Q515 397.4 514.6 396.8Q514.1 396.2 513.4 395.8Q512.6 395.5 511.5 395.5L511.5 395.5Q509.9 395.5 508.8 396.2Q507.7 396.9 507.7 398.1L507.7 398.1Q507.7 399.1 508.5 399.6Q509.2 400.2 510.7 400.6L510.7 400.6L513.3 401.2Q515.7 401.8 516.8 403.0Q518.0 404.1 518.0 406.0L518.0 406.0Q518.0 407.5 517.1 408.7Q516.2 409.8 514.7 410.5Q513.2 411.2 511.1 411.2L511.1 411.2Q508.5 411.2 506.7 410.0Q505.0 408.9 504.5 406.7L504.5 406.7L507.0 406.0Q507.4 407.4 508.4 408.1Q509.4 408.8 511.1 408.8L511.1 408.8Q513.0 408.8 514.1 408.0Q515.2 407.2 515.2 406.1L515.2 406.1Q515.2 405.2 514.5 404.6Q513.9 404.0 512.6 403.7L512.6 403.7L509.7 403.0Q507.3 402.4 506.2 401.2Q505.0 400.0 505.0 398.2L505.0 398.2Q505.0 396.7 505.9 395.6Q506.7 394.4 508.2 393.8Q509.6 393.2 511.5 393.2L511.5 393.2Q514.0 393.2 515.5 394.3Q517.0 395.4 517.6 397.3Z M539.3 391.2L532.3 410.8L529.4 410.8L537.9 387.6L540.8 387.6L549.4 410.8L546.4 410.8L539.5 391.2L539.3 391.2ZM533.4 404.2L533.4 401.7L545.3 401.7L545.3 404.2L533.4 404.2ZM553 387.6L555.8 387.6L555.8 410.8L553 410.8L553 387.6Z M571.0 401.0L571.0 401.0Q571.0 396.7 572.2 393.1Q573.3 389.5 575.4 386.5L575.4 386.5L577.7 386.5Q576.9 387.6 576.2 389.2Q575.5 390.9 575.0 392.8Q574.4 394.8 574.1 396.9Q573.8 399.0 573.8 401.0L573.8 401.0Q573.8 403.7 574.3 406.5Q574.9 409.3 575.8 411.7Q576.6 414.1 577.7 415.6L577.7 415.6L575.4 415.6Q573.3 412.5 572.2 408.9Q571.0 405.3 571.0 401.0ZM582.0 410.8L582.0 387.6L585.4 387.6L593.3 406.9L593.6 406.9L601.5 387.6L604.9 387.6L604.9 410.8L602.2 410.8L602.2 393.2L602 393.2L594.7 410.8L592.2 410.8L584.9 393.2L584.7 393.2L584.7 410.8L582.0 410.8ZM612.8 410.8L610.1 410.8L610.1 393.4L612.8 393.4L612.8 410.8ZM611.5 390.5L611.5 390.5Q610.7 390.5 610.2 389.9Q609.6 389.4 609.6 388.7L609.6 388.7Q609.6 387.9 610.2 387.4Q610.7 386.8 611.5 386.8L611.5 386.8Q612.3 386.8 612.8 387.4Q613.4 387.9 613.4 388.7L613.4 388.7Q613.4 389.4 612.8 389.9Q612.3 390.5 611.5 390.5ZM620.4 400.3L620.4 400.3L620.4 410.8L617.7 410.8L617.7 393.4L620.3 393.4L620.3 396.1L620.5 396.1Q621.2 394.8 622.4 394.0Q623.7 393.2 625.6 393.2L625.6 393.2Q627.4 393.2 628.7 393.9Q630.1 394.6 630.8 396.1Q631.5 397.5 631.5 399.7L631.5 399.7L631.5 410.8L628.9 410.8L628.9 399.9Q628.9 397.9 627.8 396.7Q626.7 395.6 624.9 395.6L624.9 395.6Q623.6 395.6 622.6 396.1Q621.6 396.7 621.0 397.7Q620.4 398.8 620.4 400.3ZM639.1 410.8L636.5 410.8L636.5 393.4L639.1 393.4L639.1 410.8ZM637.8 390.5L637.8 390.5Q637.0 390.5 636.5 389.9Q635.9 389.4 635.9 388.7L635.9 388.7Q635.9 387.9 636.5 387.4Q637.0 386.8 637.8 386.8L637.8 386.8Q638.6 386.8 639.2 387.4Q639.7 387.9 639.7 388.7L639.7 388.7Q639.7 389.4 639.2 389.9Q638.6 390.5 637.8 390.5ZM646.7 410.8L644.0 410.8L644.0 393.4L646.6 393.4L646.6 396.1L646.9 396.1Q647.4 394.7 648.6 393.9Q649.8 393.2 651.5 393.2L651.5 393.2Q653.3 393.2 654.4 393.9Q655.6 394.7 656.2 396.1L656.2 396.1L656.4 396.1Q657.1 394.8 658.4 394.0Q659.8 393.2 661.6 393.2L661.6 393.2Q664.0 393.2 665.5 394.6Q667.0 396.1 667.0 399.2L667.0 399.2L667.0 410.8L664.3 410.8L664.3 399.2Q664.3 397.2 663.2 396.4Q662.2 395.6 660.7 395.6L660.7 395.6Q658.9 395.6 657.9 396.7Q656.9 397.8 656.9 399.5L656.9 399.5L656.9 410.8L654.1 410.8L654.1 398.9Q654.1 397.4 653.2 396.5Q652.2 395.6 650.7 395.6L650.7 395.6Q649.6 395.6 648.7 396.1Q647.8 396.7 647.3 397.7Q646.7 398.6 646.7 399.9L646.7 399.9L646.7 410.8ZM677.0 411.2L677.0 411.2Q675.3 411.2 674.0 410.6Q672.6 410.0 671.8 408.8Q671.0 407.6 671.0 405.9L671.0 405.9Q671.0 404.4 671.6 403.4Q672.2 402.5 673.2 402.0Q674.2 401.4 675.4 401.2Q676.6 400.9 677.8 400.7L677.8 400.7Q679.4 400.5 680.4 400.4Q681.4 400.3 681.9 400.1Q682.3 399.8 682.3 399.2L682.3 399.2L682.3 399.1Q682.3 397.4 681.4 396.4Q680.5 395.5 678.6 395.5L678.6 395.5Q676.7 395.5 675.6 396.4Q674.5 397.2 674.1 398.2L674.1 398.2L671.5 397.2Q672.2 395.7 673.4 394.8Q674.5 393.9 675.9 393.5Q677.2 393.2 678.5 393.2L678.5 393.2Q679.4 393.2 680.5 393.4Q681.6 393.6 682.6 394.2Q683.6 394.8 684.3 396.0Q685.0 397.3 685.0 399.3L685.0 399.3L685.0 410.8L682.3 410.8L682.3 408.5L682.2 408.5Q681.9 409.0 681.3 409.7Q680.6 410.3 679.6 410.8Q678.5 411.2 677.0 411.2ZM677.4 408.8L677.4 408.8Q679.0 408.8 680.1 408.2Q681.2 407.6 681.8 406.6Q682.3 405.6 682.3 404.5L682.3 404.5L682.3 402.1Q682.1 402.3 681.6 402.4Q681.0 402.6 680.3 402.7Q679.5 402.8 678.8 402.9Q678.1 403.0 677.7 403.1L677.7 403.1Q676.6 403.2 675.7 403.5Q674.8 403.8 674.3 404.4Q673.7 405.0 673.7 406.0L673.7 406.0Q673.7 407.4 674.8 408.1Q675.8 408.8 677.4 408.8ZM688.8 393.4L691.9 393.4L696.1 400.5L700.3 393.4L703.4 393.4L697.7 402.1L703.4 410.8L700.3 410.8L696.1 404.1L691.9 410.8L688.8 410.8L694.4 402.1L688.8 393.4ZM712.9 401.0L712.9 401.0Q712.9 405.3 711.8 408.9Q710.7 412.5 708.6 415.6L708.6 415.6L706.2 415.6Q707.0 414.4 707.8 412.8Q708.5 411.2 709.0 409.2Q709.5 407.2 709.8 405.1Q710.1 403.0 710.1 401.0L710.1 401.0Q710.1 398.3 709.6 395.5Q709.1 392.7 708.2 390.4Q707.3 388.0 706.2 386.5L706.2 386.5L708.6 386.5Q710.7 389.5 711.8 393.1Q712.9 396.7 712.9 401.0Z "></path></svg>